<?xml version="1.0" standalone="no"?>
<!DOCTYPE svg PUBLIC "-//W3C//DTD SVG 20010904//EN"
 "http://www.w3.org/TR/2001/REC-SVG-20010904/DTD/svg10.dtd">
<svg version="1.0" xmlns="http://www.w3.org/2000/svg"
 width="911.000000pt" height="171.000000pt" viewBox="0 0 911.000000 171.000000"
 preserveAspectRatio="xMidYMid meet">

<g transform="translate(0.000000,171.000000) scale(0.100000,-0.100000)"
fill="#000000" stroke="none">
<path d="M1445 1448 c-22 -12 -58 -35 -81 -52 -45 -35 -172 -168 -200 -210
-13 -21 -23 -26 -40 -22 -62 16 -242 27 -442 27 -406 0 -661 -55 -541 -117 39
-20 86 -22 159 -6 95 21 372 32 550 22 91 -5 173 -9 183 -10 9 0 17 -4 17 -9
0 -6 -92 -8 -242 -4 -236 6 -460 -6 -511 -27 -12 -5 -17 -9 -12 -9 6 -1 36 -5
68 -11 267 -43 597 -27 838 41 68 19 89 38 64 59 -12 10 1 26 77 89 207 171
249 224 199 251 -27 14 -40 12 -86 -12z"/>
<path d="M2060 1268 c0 -18 -7 -195 -15 -393 -8 -198 -15 -386 -15 -417 l0
-58 94 0 93 0 7 53 c3 28 6 120 6 202 0 83 3 174 7 203 l6 53 72 -163 73 -163
78 0 78 0 71 165 70 164 6 -174 c4 -96 7 -212 8 -257 l1 -83 105 0 105 0 -5
52 c-3 29 -12 213 -20 408 -9 195 -18 374 -21 398 l-5 43 -100 -3 -101 -3 -91
-227 c-51 -125 -94 -228 -97 -228 -3 0 -48 104 -99 230 l-93 230 -109 0 -109
0 0 -32z"/>
<path d="M6190 1220 l-40 -80 60 0 60 0 0 -370 0 -370 100 0 100 0 2 246 3
246 149 -246 149 -246 84 0 83 0 0 450 0 450 -95 0 -95 0 -2 -252 -3 -252
-151 249 -151 250 -106 3 -106 3 -41 -81z"/>
<path d="M8810 1195 l0 -85 95 0 95 0 0 85 0 85 -95 0 -95 0 0 -85z"/>
<path d="M4290 1150 l0 -90 -40 0 -40 0 0 -80 0 -80 39 0 39 0 4 -182 c3 -173
5 -186 28 -228 17 -30 40 -53 70 -70 39 -22 57 -25 142 -25 60 0 101 4 109 12
8 8 9 32 3 85 l-9 73 -47 -3 c-98 -7 -108 12 -108 204 l0 133 36 3 c34 3 40 8
79 78 l43 75 -79 3 -79 3 0 89 0 90 -95 0 -95 0 0 -90z"/>
<path d="M7840 1150 l0 -90 -40 0 -40 0 0 -80 0 -80 40 0 40 0 0 -167 c0 -93
5 -185 11 -206 26 -97 120 -145 257 -133 41 3 78 9 83 12 9 5 7 39 -7 130 l-4
30 -58 -4 c-84 -6 -86 -2 -92 185 l-5 153 37 0 c35 0 38 3 77 75 23 41 41 77
41 80 0 3 -34 5 -75 5 l-75 0 0 90 0 90 -95 0 -95 0 0 -90z"/>
<path d="M3200 1060 c-101 -21 -131 -32 -126 -49 39 -141 35 -134 64 -127 15
4 63 9 107 12 72 6 83 4 108 -16 46 -36 35 -46 -55 -53 -46 -4 -100 -11 -121
-17 -47 -14 -115 -74 -134 -117 -30 -73 -7 -189 48 -240 75 -68 264 -82 442
-32 l38 10 -3 238 -3 238 -30 49 c-42 67 -112 103 -215 109 -41 2 -95 0 -120
-5z m180 -440 l0 -70 -60 0 c-51 0 -65 4 -85 25 -57 56 -10 114 93 115 l52 0
0 -70z"/>
<path d="M4933 1060 c-92 -19 -159 -77 -194 -167 -32 -82 -32 -252 0 -335 25
-65 87 -128 147 -149 50 -17 178 -17 225 -1 41 14 122 90 145 134 9 17 14 31
12 32 -2 1 -33 12 -69 25 l-66 22 -31 -30 c-27 -28 -37 -31 -89 -31 -68 0 -96
20 -108 78 l-7 32 190 0 c221 0 205 -11 191 124 -18 174 -92 257 -244 270 -33
3 -79 1 -102 -4z m136 -186 c12 -15 21 -35 21 -45 0 -17 -9 -19 -90 -19 -81 0
-90 2 -90 19 0 10 9 30 21 45 17 22 28 26 69 26 41 0 52 -4 69 -26z"/>
<path d="M5667 1056 c-26 -7 -56 -21 -67 -31 -20 -18 -20 -17 -20 8 l0 27
-105 0 -105 0 -40 -80 -40 -80 50 0 50 0 0 -250 0 -250 95 0 95 0 0 193 c0
163 3 197 18 227 21 44 72 70 135 70 l47 0 0 85 c0 61 -3 85 -12 85 -7 0 -22
2 -33 5 -11 2 -41 -2 -68 -9z"/>
<path d="M8591 1059 c-24 -5 -54 -15 -67 -24 -30 -20 -34 -19 -34 5 0 19 -7
20 -105 20 l-105 0 -40 -80 -40 -80 50 0 50 0 0 -250 0 -250 94 0 94 0 4 203
c3 176 5 207 21 231 23 35 73 56 132 56 l45 0 0 84 c0 78 -1 84 -22 90 -13 3
-25 5 -28 5 -3 -1 -25 -5 -49 -10z"/>
<path d="M3813 1046 c-95 -31 -143 -95 -143 -191 0 -103 45 -149 186 -193 86
-27 89 -29 89 -57 0 -25 -6 -32 -35 -42 -36 -13 -125 -9 -183 8 -17 5 -32 7
-35 5 -2 -2 -12 -36 -22 -75 l-18 -70 52 -18 c74 -26 222 -23 297 5 114 45
170 151 139 264 -16 57 -63 95 -153 123 -101 32 -117 41 -117 66 0 32 44 43
117 30 34 -6 68 -14 75 -16 8 -3 27 21 50 63 l37 69 -57 18 c-73 24 -222 30
-279 11z"/>
<path d="M7112 828 c5 -248 11 -282 60 -348 12 -17 47 -42 76 -57 49 -24 66
-27 171 -27 82 -1 137 4 189 18 l72 18 0 314 0 314 -95 0 -95 0 0 -244 0 -244
-35 -6 c-19 -4 -53 -2 -75 4 -68 18 -74 41 -78 283 l-4 207 -95 0 -95 0 4
-232z"/>
<path d="M8774 1013 c-15 -27 -35 -63 -45 -80 l-18 -33 52 0 52 0 -3 -250 -4
-250 96 0 96 0 0 330 0 330 -100 0 -99 0 -27 -47z"/>
<path d="M100 972 c0 -167 40 -346 101 -448 48 -81 138 -167 212 -204 34 -16
100 -40 147 -51 72 -18 103 -21 220 -16 132 5 180 12 180 26 0 4 -42 15 -92
25 -169 32 -339 112 -404 189 -15 18 -35 51 -46 74 -20 46 -35 133 -23 133 5
0 58 -48 119 -108 61 -59 143 -131 181 -160 81 -61 195 -120 245 -127 32 -4
32 -4 -9 10 -79 26 -101 62 -107 176 -6 141 -36 210 -124 293 -68 64 -155 101
-301 130 -127 26 -209 59 -265 108 l-34 30 0 -80z"/>
<path d="M1215 999 c-63 -64 -104 -80 -230 -90 -114 -8 -173 -24 -232 -60
l-35 -22 56 -56 c30 -31 60 -69 66 -86 7 -16 14 -81 17 -142 3 -62 9 -113 14
-113 16 0 132 138 199 236 39 57 75 106 80 109 14 9 22 -56 12 -102 -21 -95
-98 -178 -232 -254 l-54 -31 28 -24 c36 -32 79 -30 141 5 134 77 217 226 231
416 7 87 -3 255 -15 255 -4 0 -25 -18 -46 -41z"/>
</g>
</svg>
